<svg xmlns="http://www.w3.org/2000/svg" width="137.914" height="40.497" viewBox="0 0 137.914 40.497">
  <path id="パス_22" data-name="パス 22" d="M5.166-9.828c-1.854,0-4.032,2.088-4.032,3.654,0,.774.918.99,1.926,1.35.684.234,1.728.54,1.89.864,0,.972-1.71,1.782-4.536,2.214a.552.552,0,0,0-.234.414c0,.18.144.342.576.342C1.116-.99,6.21-1.044,6.21-4c0-.972-1.818-1.656-3.834-2.16a.217.217,0,0,1-.144-.2A3.549,3.549,0,0,1,5.2-8.748a1.214,1.214,0,0,0,.36-.756c0-.18-.108-.324-.378-.324Zm7.128,6.84c.324,1.008.882,1.458,1.44,1.458A2.663,2.663,0,0,0,15.5-2.52a2.056,2.056,0,0,0,.306-.756c0-.126-.054-.162-.162-.162H15.57a4.161,4.161,0,0,1-1.89.936.3.3,0,0,1-.18-.036,3.25,3.25,0,0,1-.414-1.926,5.041,5.041,0,0,1,.162-1.368.962.962,0,0,0-.756-.648.37.37,0,0,0-.342.288,9.1,9.1,0,0,0-.108,1.35c0,.144.018.288.018.432A3.464,3.464,0,0,1,9.954-2.286c-.486,0-.612-1.08-.612-1.494A7.282,7.282,0,0,1,10.908-8.3a1.34,1.34,0,0,1,.414-.252c.216.036.36.342.45.936a1.025,1.025,0,0,0,.738.342c.2,0,.36-.09.36-.324A1.668,1.668,0,0,0,11.286-9.45c-1.116,0-3.1,2.754-3.1,5.67,0,2.214,1.026,2.556,1.656,2.556a3.2,3.2,0,0,0,2.268-1.764ZM25.416-6.282c.414,3.312,1.566,3.87,2.2,3.87a1.362,1.362,0,0,0,1.26-1.17.223.223,0,0,0-.234-.252H28.6a1.8,1.8,0,0,1-.972.468c-.378-.09-1.134-.9-1.134-3.87v-.486a1.089,1.089,0,0,0-.81-.63.427.427,0,0,0-.4.342c-.684,1.242-1.746,3.42-2.34,4.41l-.216-.018a16,16,0,0,1-.27-3.024,11.271,11.271,0,0,1,.054-1.224c-.162-.378-.414-.7-.7-.7-.432,0-1.026,1.062-2.826,4.9l-.144-.036L18.828-5.22c-.018-1.1-.126-3.6-.846-3.6-.27,0-.576.27-.72.828a8.781,8.781,0,0,1,.468,2.808,27.724,27.724,0,0,0,.306,3.528.9.9,0,0,0,.7.432.5.5,0,0,0,.522-.36l.2-.792a19.846,19.846,0,0,1,1.764-4.158l.18.054a14.063,14.063,0,0,0,.774,4.338,1.071,1.071,0,0,0,.666.36.406.406,0,0,0,.378-.27c.576-1.134,1.314-2.88,2.034-4.284ZM32.436-3.6v-.432a19.982,19.982,0,0,1,.216-3.222.986.986,0,0,0-.792-.7c-.432,0-.486.648-.486,3.708a22.1,22.1,0,0,0,1.062,6.372.467.467,0,0,0,.288.2c.144,0,.252-.216.252-.864,0-.126-.018-.252-.018-.4a21.436,21.436,0,0,1-.486-3.582c3.2-1.458,4.284-3.06,4.284-4.59,0-.918-.936-2.322-2.988-2.322a10.812,10.812,0,0,0-3.636.774,1.231,1.231,0,0,0-.162.594c0,.234.09.432.324.432a.916.916,0,0,0,.252-.072A10.885,10.885,0,0,1,34-8.622c1.134.144,1.62.792,1.62,1.548,0,1.1-.954,2.448-2.934,3.636Zm8.55,0c.792,2.2,2.052,2.5,2.5,2.5.63,0,1.26-.684,1.53-1.17a3.544,3.544,0,0,0,.288-1.044c0-.162-.054-.234-.162-.234a.268.268,0,0,0-.162.036c-.828,1.044-1.368,1.224-1.584,1.224-.36,0-1.3-.5-1.8-2.826a14.118,14.118,0,0,0,1.656-6.534c0-2.88-1.278-2.988-1.35-2.988-.342,0-1.782.774-1.782,5.364a20.325,20.325,0,0,0,.4,4A35.127,35.127,0,0,1,38.394-2.25a.5.5,0,0,0-.018.162c0,.126.054.2.162.2.2,0,.558-.2,1.17-.72l1.008-1.152.216.018ZM41.2-7.308a18.089,18.089,0,0,1-.126-2.178,8.827,8.827,0,0,1,.648-3.816c.252.126.378.774.378,1.71a14.552,14.552,0,0,1-.7,4.3Zm7.344,2.52C48.672-6.822,50.526-8.5,51.1-8.5a.647.647,0,0,1,.576.576c-.054.5-1.26,2.016-2.934,3.222Zm-.864,1.98A2.658,2.658,0,0,0,50.238-1.1a4.773,4.773,0,0,0,3.8-2,2.2,2.2,0,0,0,.4-1.008c0-.18-.072-.27-.2-.27a.2.2,0,0,0-.09.018A5.389,5.389,0,0,1,50.31-2.178a2.543,2.543,0,0,1-1.026-.2,2.312,2.312,0,0,1-.648-1.278c1.8-1.188,4.176-3.186,4.176-4.554A1.17,1.17,0,0,0,51.57-9.324c-1.314,0-4.14,1.782-4.14,5.058a2.787,2.787,0,0,0,.018.4l-.684.414a3.3,3.3,0,0,0-.036.378c0,.216.054.342.2.342a.436.436,0,0,0,.234-.072l.216-.108ZM68.94-6.3c-.162-1.116-.414-2.718-1.638-2.718-1.17,0-3.33,1.962-3.33,4.77,0,1.98.9,3.15,2.43,3.15A4.9,4.9,0,0,0,71.01-4.554a.161.161,0,0,0-.18-.18.9.9,0,0,0-.216.036c-1.35,1.71-2.844,2.466-4.032,2.466-.4,0-1.458-.072-1.458-2.016S66.582-8.1,67.266-8.1c.27,0,.4.792.576,1.98a.922.922,0,0,0,.648.288.416.416,0,0,0,.45-.45ZM73.6-4.338c-.036-.828-.072-1.638-.072-2.376a10.384,10.384,0,0,1,.2-2.466c-.2-.378-.522-.666-.792-.666-.252,0-.486.108-.486,1.962a33.832,33.832,0,0,0,.63,6.3c.09.432.252.594.432.594.2,0,.4-.2.576-.468,0,0,.036-.342.036-.666,0-.288-.036-.576-.126-.576a17.278,17.278,0,0,1,3.2-5.706,1.412,1.412,0,0,0,.18-.558c0-.144-.072-.234-.252-.27A8.637,8.637,0,0,0,73.764-4.3Zm7.83-3.78c1.908.7,2.916,2.07,2.916,2.808,0,1.386-.936,2.79-2.106,2.79a2.663,2.663,0,0,1-2.574-2.394A3.5,3.5,0,0,1,81.432-8.118Zm.432-.774c0-.216-.054-.414-.216-.468-.036,0-.072-.018-.126-.018-1.08,0-2.88,1.818-2.88,4.464a3.718,3.718,0,0,0,3.6,3.51c1.908,0,3.168-1.98,3.168-3.906C85.41-6.642,84.4-8.154,81.864-8.892Zm10.152-.936c-1.854,0-4.032,2.088-4.032,3.654,0,.774.918.99,1.926,1.35.684.234,1.728.54,1.89.864,0,.972-1.71,1.782-4.536,2.214a.552.552,0,0,0-.234.414c0,.18.144.342.576.342.36,0,5.454-.054,5.454-3.006,0-.972-1.818-1.656-3.834-2.16a.217.217,0,0,1-.144-.2,3.549,3.549,0,0,1,2.97-2.394,1.214,1.214,0,0,0,.36-.756c0-.18-.108-.324-.378-.324Zm7.47,0c-1.854,0-4.032,2.088-4.032,3.654,0,.774.918.99,1.926,1.35.684.234,1.728.54,1.89.864,0,.972-1.71,1.782-4.536,2.214a.552.552,0,0,0-.234.414c0,.18.144.342.576.342.36,0,5.454-.054,5.454-3.006,0-.972-1.818-1.656-3.834-2.16a.217.217,0,0,1-.144-.2,3.549,3.549,0,0,1,2.97-2.394,1.214,1.214,0,0,0,.36-.756c0-.18-.108-.324-.378-.324Zm9.27,1.458c.468-.306.666-.576.666-.756,0-.162-.162-.252-.4-.27l-2.43.63-.27-.2c.072-2.106.306-4,.864-4.626.378,0,.558.288.72,1.35a.969.969,0,0,0,.576.2c.27,0,.5-.126.5-.45v-.09c-.18-.81-.63-1.944-1.44-1.944-1.872,0-2.286,2.952-2.358,6.138l-2.484.72a1.171,1.171,0,0,0-.2.612c0,.27.126.468.378.468a.9.9,0,0,0,.216-.036L104.94-7.2l.252.2a49.875,49.875,0,0,0,.9,7.506c.09.108.2.252.324.252.18,0,.36-.324.4-1.584-.342-3.114-.486-5.454-.5-6.786Zm6.39,5.382c.324,1.008.882,1.458,1.44,1.458a2.663,2.663,0,0,0,1.764-.99,2.056,2.056,0,0,0,.306-.756c0-.126-.054-.162-.162-.162h-.072a4.161,4.161,0,0,1-1.89.936.3.3,0,0,1-.18-.036,3.25,3.25,0,0,1-.414-1.926,5.041,5.041,0,0,1,.162-1.368.962.962,0,0,0-.756-.648.37.37,0,0,0-.342.288,9.1,9.1,0,0,0-.108,1.35c0,.144.018.288.018.432a3.464,3.464,0,0,1-2.106,2.124c-.486,0-.612-1.08-.612-1.494A7.282,7.282,0,0,1,113.76-8.3a1.34,1.34,0,0,1,.414-.252c.216.036.36.342.45.936a1.025,1.025,0,0,0,.738.342c.2,0,.36-.09.36-.324a1.668,1.668,0,0,0-1.584-1.854c-1.116,0-3.1,2.754-3.1,5.67,0,2.214,1.026,2.556,1.656,2.556a3.2,3.2,0,0,0,2.268-1.764Zm9.99.306a10.678,10.678,0,0,1-2.07.234c-.972,0-1.6-.2-1.8-.468,0-1.062,1.368-2.61,3.258-3.906l.27.108c.108,1.3.288,2.592.5,3.762ZM126-.378a.987.987,0,0,0,.576.234c.18,0,.306-.09.306-.36a1.8,1.8,0,0,0-.036-.288l-.306-1.3.342-.162c.486-.342.666-.612.666-.792s-.144-.288-.36-.324l-.576.234-.306-.144a52.645,52.645,0,0,1-.594-7.848,17.723,17.723,0,0,1,.144-2.61c-.2-.45-.486-.648-.738-.648-.54,0-.558.81-.558,2.826,0,1.044.036,2.286.126,3.582l-.378-.126c-1.26.882-4.194,3.4-4.194,5.22,0,.882,1.278,1.548,2.592,1.548a10.121,10.121,0,0,0,2.88-.4Zm5.346-4.41c.126-2.034,1.98-3.708,2.556-3.708a.647.647,0,0,1,.576.576c-.054.5-1.26,2.016-2.934,3.222Zm-.864,1.98a2.658,2.658,0,0,0,2.556,1.71,4.773,4.773,0,0,0,3.8-2,2.2,2.2,0,0,0,.4-1.008c0-.18-.072-.27-.2-.27a.2.2,0,0,0-.09.018,5.389,5.389,0,0,1-3.834,2.178,2.543,2.543,0,0,1-1.026-.2,2.312,2.312,0,0,1-.648-1.278c1.8-1.188,4.176-3.186,4.176-4.554a1.17,1.17,0,0,0-1.242-1.116c-1.314,0-4.14,1.782-4.14,5.058a2.788,2.788,0,0,0,.018.4l-.684.414a3.3,3.3,0,0,0-.036.378c0,.216.054.342.2.342a.436.436,0,0,0,.234-.072l.216-.108Z" transform="matrix(0.985, -0.174, 0.174, 0.985, 2.364, 38.242)" fill="#f83"/>
</svg>
