<svg xmlns="http://www.w3.org/2000/svg" width="61.611" height="87.475" viewBox="0 0 61.611 87.475">
  <g id="グループ_4" data-name="グループ 4" transform="translate(-321.931 -2184.134) rotate(1)">
    <path id="tegaki_arrow_orange" d="M.266,8.243c.214.053.241.2.071.445-.214.329-.089.427,1.059.863.712.267,3.445,1.157,6.107,1.976,6.151,1.9,10.433,3.694,10.932,4.6a.846.846,0,0,0,.5.374c.231.062.213-.009-.045-.214-.33-.267-.33-.3.036-.347.57-.062.641-.427.213-1.086a11.631,11.631,0,0,0-4.807-3.427c-.9-.409-.917-.436-.365-.543a11.524,11.524,0,0,1,2.181.071A4.031,4.031,0,0,0,17.8,10.94c.062-.249.2-.222-2.724-.516A20.6,20.6,0,0,1,12.195,10a15.245,15.245,0,0,1,3.089.178,136.648,136.648,0,0,0,24.2.187,23.188,23.188,0,0,0,3.712-.454c.116-.1.2-.116.178-.027s.329.116.8.053a6.363,6.363,0,0,1,.979-.062c.881.258-5.724.9-11.332,1.1-4.282.151-9.935.107-13.336-.116a9.185,9.185,0,0,0-2.439.009c-.16.561,9.828.837,17.1.463,1.869-.089,4.914-.3,6.73-.463l3.3-.3.828.979c.81.953.864.979,3.142,1.62a15.72,15.72,0,0,0,4.246.686c2.733.053,4.789-.045,4.843-.223.027-.089-.552-.142-1.264-.116-3.294.142-7.816-.258-7.941-.712-.026-.089.6-.053,1.4.1,3.249.6,24.475-.911,29.487-1.828,2.448-.445,2.929-.605,3.045-1.015.133-.472.124-.481-.561-.3-.391.1-.694.285-.676.427s-.276.338-.65.427c-.935.249-1.985.312-1.772.116a2.214,2.214,0,0,1,.953-.187,1.642,1.642,0,0,0,.979-.276c.124-.16-.374-.169-1.4-.009-1.62.24-2.59.57-2.119.7.151.045.276,0,.3-.1s.24-.116.472-.044c.712.2.258.3-1.825.392-.312.018-.258-.027.16-.142.587-.16.6-.169.151-.3-.249-.08-16.036,1.214-16.134,1.312a.716.716,0,0,1-.6.062c-.231-.071-.436-.027-.472.089a.254.254,0,0,0,.178.285c.125.036.16.116.071.16s-.294-.062-.418-.258c-.285-.418-.792-.321-.748.142.009.187-.054.3-.16.276a.35.35,0,0,1-.2-.3c-.009-.169-1-.258-2.751-.24a26.187,26.187,0,0,1-7.237-.739c-1.06-.356-2.083-1-1.834-1.139a23.007,23.007,0,0,1,2.395-.418A32.394,32.394,0,0,0,56.2,8.2c.267-.178.472-.249.445-.169-.08.285,2.341-.721,3.534-1.469,1.878-1.175,2.252-2.27,1.193-3.436-.543-.588-1.87-1.131-1.958-.792-.027.08-.258.089-.534.009-1.015-.276-1.247-.285-1.175-.045.035.134-.125.2-.356.125s-.463-.027-.49.08-.169.116-.32,0c-.187-.142-.294-.036-.365.374s-.249.6-.614.659c-.427.071-.445.053-.089-.1.552-.231.543-1.015,0-.855-.329.1-.329.125-.062.2s.267.107-.044.2c-.249.071-.392.018-.454-.2-.08-.24-.116-.24-.178-.036a.3.3,0,0,1-.4.169.511.511,0,0,0-.534.2.509.509,0,0,1-.472.2,2.359,2.359,0,0,0-1.1.347c-.454.231-.819.356-.8.285s-.134.062-.338.321c-.24.294-.383.356-.4.16s-.587.018-1.558.579c-1.834,1.05-3.151,2.021-3.035,2.234.044.089-.107.258-.347.4a1.126,1.126,0,0,0-.516.507c-.08.285-.783.436-2.421.516a5.678,5.678,0,0,0-1.371.2,2.055,2.055,0,0,1-.926.045,1.265,1.265,0,0,0-.917.16c-.187.151-.356.187-.4.1a24.336,24.336,0,0,0-3.863.027,142.553,142.553,0,0,1-15.534-.053,3.109,3.109,0,0,1-.846-.116.75.75,0,0,0-.516.062.511.511,0,0,1-.525-.027.244.244,0,0,0-.347-.027c-.1.089-.347.053-.561-.071s-.418-.125-.454-.009-.231.107-.427-.009A14.667,14.667,0,0,0,13.156,8.5,15.959,15.959,0,0,1,10.5,8.136a6.86,6.86,0,0,1,1.745-.721,42.717,42.717,0,0,0,8.163-3.677c1.887-1.1,2.368-1.478,2.128-1.647-.223-.169-.231-.3-.027-.49.445-.409.418-.516-.187-.57-.463-.045-.516-.1-.311-.383.169-.223.16-.3-.027-.258-.151.044-.3-.08-.356-.276-.062-.276-.561-.08-2.208.837-1.344.757-2.092,1.3-2.039,1.487.062.2.018.231-.116.08a6.043,6.043,0,0,0-2.43.766A29.837,29.837,0,0,1,7.575,5.617a24.735,24.735,0,0,1-6.036.623A2.124,2.124,0,0,0,.4,6.365C-.054,6.676-.152,8.118.266,8.243Zm81.716,1.876a.705.705,0,0,1,.552-.071c.312.089.312.116-.018.223C82.017,10.421,81.741,10.341,81.982,10.119ZM60.72,4.923c.49.285.641.694.223.579a.985.985,0,0,1-.481-.454C60.338,4.753,60.382,4.727,60.72,4.923Zm-6.2-1.335c.454.009.454.027-.018.329-.57.356-.65.347-.534-.045A.535.535,0,0,1,54.515,3.587ZM51.5,4.718l.588-.267-.525.356c-.5.338-.712.409-.668.24A2.751,2.751,0,0,1,51.5,4.718Zm-.054.783A10.256,10.256,0,0,0,53.554,4.5c.027-.1.187-.133.356-.089a1.066,1.066,0,0,0,.65-.1,8.506,8.506,0,0,1,1.451-.436,5.562,5.562,0,0,0,1.273-.392.3.3,0,0,1,.3-.089,7.154,7.154,0,0,0,1.317.062c.8-.009,1.237.071,1.335.249s.045.249-.142.2a6.275,6.275,0,0,0-2.751.053,32.162,32.162,0,0,0-6.5,2.047c-1.086.534-1.558.668-1.486.427A15.078,15.078,0,0,1,51.444,5.5Zm.365.561c2.519-1.015,6.24-2.074,6.766-1.923a2.025,2.025,0,0,0,.8-.009c.774-.169.837.214.107.659-.819.5-.917.792-.267.774l.481-.009-.6.356c-.33.2-.623.276-.677.169s.009-.16.152-.116.222-.036.187-.178a.612.612,0,0,0-.383-.338c-.187-.053-.285.027-.232.2.053.2-.018.214-.249.044-.187-.133-.285-.133-.249.009s-.071.214-.258.151a.959.959,0,0,0-.712.258.956.956,0,0,1-.757.24,1.759,1.759,0,0,0-1.059.267,1.953,1.953,0,0,1-.89.312,10.96,10.96,0,0,0-2.653.614,3.406,3.406,0,0,1-.89.178,4.825,4.825,0,0,0-1.327.347c-.605.285-.97.285-.89,0C48.329,7.656,49.6,6.943,51.809,6.062Zm6.2.4c-.044.151-.222.222-.694.258-.027.009.053-.125.16-.276C57.694,6.142,58.085,6.151,58.005,6.463Zm-1.611.445-.632.3c-.605.285-.8.321-.748.151a2.084,2.084,0,0,1,.7-.267Zm-6.543,1.8c-.472.142-.552.125-.321-.089a.494.494,0,0,1,.445-.1C50.127,8.564,50.073,8.635,49.851,8.706ZM47.982,6.311c.187-.107.3-.089.267.036-.08.267-.41.454-.516.276C47.688,6.552,47.794,6.418,47.982,6.311Zm-1.1,2.742c.169-.16,1.1-.2,1.06-.045a1.234,1.234,0,0,1-.543.142C46.7,9.222,46.7,9.222,46.886,9.053Zm2.03.285c2.822-.454,7.6-1.656,7.683-1.932a.211.211,0,0,1,.276-.107,6.926,6.926,0,0,0,2.608-1.006c.534-.267.961-.409.935-.312-.089.294-2.19,1.273-3.659,1.718-.721.214-1.46.472-1.638.552a30.733,30.733,0,0,1-5.252,1.184c-3.2.614-3.605.659-3.534.436A14.7,14.7,0,0,1,48.916,9.338ZM9.729,7.291c.534-.1.952-.134.935-.071a3.1,3.1,0,0,1-.952.294c-1.015.214-1.015.214-.97.071A3.046,3.046,0,0,1,9.729,7.291ZM4.317,9.676a18.272,18.272,0,0,1,2.11.605c.6.214.142.116-1.015-.214S3.765,9.561,4.317,9.676Zm77.87,1.5c.1.187-1.914.57-5.11.988-2.457.32-19.036,1.632-18.466,1.356.142-.062,16.641-1.489,17.736-1.6s2.84-.338,3.881-.534A7.412,7.412,0,0,1,82.186,11.178Zm.792-.347c.4-.16.41-.151.054.116-.383.276-.579.329-.525.142A1.364,1.364,0,0,1,82.978,10.831Zm1.327-.944c.124.045-.054.2-.392.347s-.668.2-.712.116C83.085,10.154,83.976,9.78,84.305,9.887Zm-.935-.232c.027-.089.312-.187.641-.24s.579-.027.552.062-.285.2-.57.249C83.317,9.843,83.317,9.843,83.37,9.656Zm3.454.267c.116.036-.009.151-.285.258s-.534.125-.578.053C85.872,10.056,86.513,9.834,86.824,9.923Zm-1.754-.632c.356-.1.223.249-.178.472-.667.374.16.24,1.932-.312,2.2-.686,2.635-.908,2.831-1.442.16-.418.16-.418-.552-.16-.757.267-1.184.552-.935.623a1.739,1.739,0,0,0,.641-.2c.267-.125.525-.178.561-.107.125.214-1.157.57-1.7.481a7.953,7.953,0,0,0-2.813.605C84.839,9.317,84.919,9.335,85.071,9.291ZM87.6,8.81a8.081,8.081,0,0,1-2.074.73c-.035-.018-.053-.062-.035-.125A6.183,6.183,0,0,1,87.6,8.81Zm.2.917a.447.447,0,0,1-.383.125c-.294-.089-.187-.222.213-.267C87.839,9.567,87.9,9.62,87.795,9.727Zm1.567-.694a1.362,1.362,0,0,1,.694-.258c.116.036-.062.178-.4.329C88.845,9.469,88.721,9.442,89.361,9.033Zm1.6-.7c.418-.16.418-.151.08.107a1.178,1.178,0,0,1-.481.258C90.385,8.641,90.528,8.507,90.964,8.329Zm-.766-.3a.886.886,0,0,1,.588-.178c.125.036,0,.151-.276.258C89.869,8.347,89.762,8.32,90.2,8.027ZM91.409,6.86l.712-.338-.668.436a4.933,4.933,0,0,1-.739.418C90.545,7.323,90.723,7.19,91.409,6.86Z" transform="translate(421.751 2185.618) rotate(120)" fill="#ff9f5a"/>
  </g>
</svg>
