<svg xmlns="http://www.w3.org/2000/svg" width="77.321" height="50.195" viewBox="0 0 77.321 50.195">
  <g id="グループ_1" data-name="グループ 1" transform="translate(-1328.225 -1366.674)">
    <path id="tegaki_arrow_blue" d="M.231,7.188c.186-.046.209-.17.062-.386-.185-.286-.077-.371.919-.749.618-.232,2.99-1,5.3-1.715C11.85,2.692,15.566,1.131,16,.343a.734.734,0,0,1,.433-.324c.2-.054.185.008-.039.185-.286.232-.286.263.031.3.494.054.556.371.185.943a10.094,10.094,0,0,1-4.172,2.974c-.78.355-.8.379-.317.471a10,10,0,0,0,1.893-.062,3.5,3.5,0,0,1,1.437.016c.054.216.17.193-2.364.448a17.874,17.874,0,0,0-2.5.371,13.23,13.23,0,0,0,2.681-.154,118.586,118.586,0,0,1,21-.162,20.123,20.123,0,0,1,3.222.394c.1.085.178.1.155.023s.286-.1.7-.046a5.522,5.522,0,0,0,.85.054c.765-.224-4.967-.78-9.834-.958-3.716-.131-8.622-.093-11.573.1a7.971,7.971,0,0,1-2.117-.008c-.139-.487,8.529-.726,14.841-.4,1.622.077,4.264.263,5.84.4l2.866.263.718-.85c.7-.827.749-.85,2.727-1.406a13.643,13.643,0,0,1,3.685-.595,16.007,16.007,0,0,1,4.2.193c.023.077-.479.124-1.1.1-2.858-.124-6.783.224-6.891.618-.023.077.518.046,1.213-.085,2.82-.518,21.24.79,25.589,1.586,2.125.386,2.542.525,2.642.881.116.409.108.417-.487.263-.34-.085-.6-.247-.587-.371s-.24-.294-.564-.371c-.811-.216-1.723-.27-1.537-.1a1.921,1.921,0,0,0,.827.162,1.425,1.425,0,0,1,.85.24c.108.139-.325.147-1.213.008-1.406-.209-2.248-.494-1.839-.61.131-.039.239,0,.263.085s.208.1.409.039c.618-.17.224-.263-1.584-.34-.27-.015-.224.023.139.124.51.139.518.147.131.263-.217.07-13.916-1.053-14-1.138a.622.622,0,0,0-.518-.054c-.2.062-.379.023-.409-.077a.22.22,0,0,1,.155-.247c.108-.031.139-.1.062-.139s-.255.054-.363.224c-.247.363-.688.278-.649-.124.008-.162-.046-.263-.139-.24a.3.3,0,0,0-.17.263c-.008.147-.865.224-2.387.209a22.726,22.726,0,0,0-6.281.641c-.92.309-1.808.865-1.592.989a19.966,19.966,0,0,0,2.078.363,28.113,28.113,0,0,1,6.18,1.553c.232.155.409.216.386.147-.07-.247,2.032.626,3.067,1.275,1.63,1.02,1.955,1.97,1.035,2.982-.471.51-1.623.981-1.7.688-.023-.069-.224-.077-.463-.008-.881.24-1.082.247-1.02.039.031-.116-.108-.17-.309-.108s-.4.023-.425-.07-.147-.1-.278,0c-.162.124-.255.031-.317-.324s-.216-.518-.533-.572c-.371-.062-.386-.046-.077.085.479.2.471.881,0,.742-.286-.085-.286-.108-.054-.178s.232-.093-.039-.178c-.216-.062-.34-.015-.394.17-.07.209-.1.209-.154.031a.263.263,0,0,0-.348-.147.444.444,0,0,1-.463-.17.441.441,0,0,0-.409-.178,2.047,2.047,0,0,1-.958-.3c-.394-.2-.711-.309-.7-.247s-.116-.054-.294-.278c-.209-.255-.332-.309-.348-.139s-.51-.015-1.352-.5c-1.591-.912-2.735-1.754-2.634-1.939.039-.077-.093-.224-.3-.348a.977.977,0,0,1-.448-.44c-.07-.247-.68-.379-2.1-.448a4.928,4.928,0,0,1-1.19-.17,1.783,1.783,0,0,0-.8-.039,1.1,1.1,0,0,1-.8-.139c-.162-.131-.309-.162-.348-.085a21.12,21.12,0,0,1-3.353-.023A123.712,123.712,0,0,0,17.173,6.4a2.7,2.7,0,0,0-.734.1.651.651,0,0,1-.448-.054.443.443,0,0,0-.456.023.211.211,0,0,1-.3.023c-.085-.077-.3-.046-.487.062s-.363.108-.394.008-.2-.093-.371.008a12.729,12.729,0,0,1-2.565.394,13.85,13.85,0,0,0-2.3.317,5.953,5.953,0,0,0,1.514.626A37.071,37.071,0,0,1,17.714,11.1c1.638.958,2.055,1.282,1.846,1.429-.193.147-.2.263-.023.425.386.355.363.448-.162.494-.4.039-.448.085-.27.332.147.193.139.263-.023.224-.131-.039-.263.07-.309.24-.054.239-.487.07-1.916-.726-1.167-.657-1.816-1.128-1.769-1.29.054-.178.016-.2-.1-.07a5.244,5.244,0,0,1-2.109-.664,25.893,25.893,0,0,0-6.3-2.024,21.466,21.466,0,0,0-5.238-.541,1.843,1.843,0,0,1-.989-.108C-.047,8.548-.132,7.3.231,7.188ZM71.146,5.561a.612.612,0,0,0,.479.062c.27-.077.27-.1-.016-.193C71.177,5.3,70.937,5.367,71.146,5.561ZM52.695,10.07c.425-.247.556-.6.193-.5a.855.855,0,0,0-.417.394C52.363,10.217,52.4,10.24,52.695,10.07ZM47.31,11.229c.394-.008.394-.023-.015-.286-.494-.309-.564-.3-.464.039A.464.464,0,0,0,47.31,11.229Zm-2.619-.981.51.232-.456-.309c-.433-.294-.618-.355-.579-.209A2.387,2.387,0,0,0,44.691,10.247Zm-.047-.68a8.9,8.9,0,0,1,1.831.873c.023.085.163.116.309.077a.925.925,0,0,1,.564.085,7.382,7.382,0,0,0,1.259.379,4.826,4.826,0,0,1,1.1.34.257.257,0,0,0,.263.077,6.208,6.208,0,0,1,1.143-.054c.7.008,1.074-.062,1.159-.216s.039-.216-.123-.178a5.445,5.445,0,0,1-2.387-.046,27.911,27.911,0,0,1-5.64-1.777c-.942-.464-1.352-.579-1.29-.371A13.086,13.086,0,0,0,44.645,9.568Zm.317-.487c2.186.881,5.415,1.8,5.871,1.669a1.757,1.757,0,0,1,.7.008c.672.147.726-.185.093-.572-.711-.433-.8-.688-.232-.672l.417.008-.518-.309c-.286-.17-.541-.239-.587-.147s.008.139.132.1.193.031.162.155a.531.531,0,0,1-.332.294c-.162.046-.247-.023-.2-.17.046-.178-.016-.185-.216-.039-.162.116-.247.116-.216-.008s-.062-.185-.224-.131a.833.833,0,0,1-.618-.224.83.83,0,0,0-.657-.209,1.527,1.527,0,0,1-.919-.232,1.7,1.7,0,0,0-.773-.27,9.511,9.511,0,0,1-2.3-.533,2.956,2.956,0,0,0-.773-.155,4.187,4.187,0,0,1-1.151-.3c-.525-.247-.842-.247-.772,0C41.941,7.7,43.046,8.316,44.962,9.081Zm5.377-.348c-.038-.131-.193-.193-.6-.224-.023-.008.046.108.139.239C50.068,9.011,50.408,9,50.338,8.733Zm-1.4-.386-.548-.263c-.525-.247-.7-.278-.649-.131a1.809,1.809,0,0,0,.61.232ZM43.262,6.786c-.409-.124-.479-.108-.278.077a.428.428,0,0,0,.386.085C43.5,6.91,43.455,6.848,43.262,6.786ZM41.64,8.865c.162.093.263.077.232-.031-.07-.232-.356-.394-.448-.24C41.385,8.656,41.477,8.772,41.64,8.865Zm-.95-2.379c.147.139.95.17.92.039a1.071,1.071,0,0,0-.471-.124C40.527,6.338,40.527,6.338,40.689,6.485Zm1.761-.247c2.449.394,6.6,1.437,6.667,1.676a.183.183,0,0,0,.239.093,6.011,6.011,0,0,1,2.264.873c.464.232.834.355.811.27a9.972,9.972,0,0,0-3.175-1.491c-.626-.185-1.267-.409-1.421-.479a26.671,26.671,0,0,0-4.558-1.027c-2.773-.533-3.129-.572-3.067-.379A12.756,12.756,0,0,0,42.451,6.238ZM8.443,8.015c.463.085.827.116.811.062a2.687,2.687,0,0,0-.827-.255c-.881-.185-.881-.185-.842-.062A2.644,2.644,0,0,0,8.443,8.015Zm-4.7-2.07a15.857,15.857,0,0,0,1.831-.525c.518-.185.123-.1-.881.185S3.267,6.045,3.746,5.944Zm67.577-1.3c.085-.162-1.661-.494-4.435-.858-2.132-.278-16.52-1.416-16.025-1.177.124.054,14.441,1.293,15.392,1.385s2.464.294,3.368.464A6.432,6.432,0,0,0,71.324,4.641Zm.687.3c.348.139.356.131.047-.1-.332-.239-.5-.286-.456-.124A1.184,1.184,0,0,0,72.011,4.942Zm1.151.819c.108-.039-.047-.178-.34-.3s-.579-.178-.618-.1C72.1,5.53,72.876,5.854,73.162,5.761Zm-.811.2c.023.077.27.162.556.209s.5.023.479-.054-.247-.17-.494-.216C72.3,5.8,72.3,5.8,72.351,5.962Zm3-.232c.1-.031-.008-.131-.247-.224s-.463-.108-.5-.046C74.522,5.615,75.078,5.808,75.349,5.73Zm-1.522.549c.309.085.193-.216-.155-.409-.579-.324.139-.209,1.677.27,1.908.595,2.287.788,2.457,1.252.139.363.139.363-.479.139-.657-.232-1.028-.479-.811-.541a1.51,1.51,0,0,1,.556.17c.232.108.456.155.487.093.108-.185-1-.494-1.476-.417a6.9,6.9,0,0,1-2.441-.525C73.626,6.256,73.7,6.24,73.827,6.279Zm2.194.417a7.013,7.013,0,0,0-1.8-.633c-.031.015-.046.054-.031.108A5.366,5.366,0,0,0,76.021,6.7Zm.17-.8a.388.388,0,0,0-.332-.108c-.255.077-.162.193.185.232C76.229,6.04,76.283,5.993,76.191,5.9Zm1.36.6a1.182,1.182,0,0,0,.6.224c.1-.031-.054-.155-.348-.286C77.1,6.125,76.994,6.148,77.55,6.5Zm1.391.61c.363.139.363.131.07-.093a1.023,1.023,0,0,0-.417-.224C78.439,6.843,78.562,6.959,78.941,7.113Zm-.664.263a.769.769,0,0,0,.51.155c.108-.031,0-.131-.239-.224C77.991,7.1,77.9,7.121,78.277,7.376Zm1.051,1.012.618.294L79.366,8.3a4.282,4.282,0,0,0-.641-.363C78.578,7.986,78.732,8.1,79.327,8.388Z" transform="translate(1328.225 1404.206) rotate(-28)" fill="#70b7e3" opacity="0.801"/>
  </g>
</svg>
