<svg xmlns="http://www.w3.org/2000/svg" width="72.397" height="38.361" viewBox="0 0 72.397 38.361">
  <g id="グループ_2" data-name="グループ 2" transform="translate(-1412.036 -1346.112)">
    <path id="tegaki_jacket" d="M3.1-3.384q.072.828.072,1.512C3.168-.048,2.784.96,2.3,1.392c-.264,0-.648-.384-.792-.96V.312A7.961,7.961,0,0,1,2.9-3.432Zm1.08-3.6c-.072-.984-.12-1.9-.12-2.664A12.819,12.819,0,0,1,4.2-11.784c-.264-.624-.7-1.08-1.032-1.08-.216,0-.384.144-.5.48A8.443,8.443,0,0,0,2.5-10.44,45.918,45.918,0,0,0,2.88-5.328C1.3-3.528.24-1.656.24,0c0,1.728,1.176,2.928,2.16,2.928,1.608,0,2.3-2.52,2.3-5.16,0-.24-.024-.456-.024-.672-.024-.456-.192-1.536-.288-2.4A19.47,19.47,0,0,1,5.9-6.672c.528-.528.768-.936.768-1.224,0-.192-.144-.312-.408-.312-.528.384-1.176.84-1.8,1.344Zm-1.3-7.632c.7.624,1.128.84,1.368.84.216,0,.288-.168.288-.408v-.144A7.444,7.444,0,0,1,3.384-18a.746.746,0,0,1,.024-.264,1.2,1.2,0,0,0-.96-.984.509.509,0,0,0-.432.24,2.371,2.371,0,0,0-.24,1.128A6.17,6.17,0,0,0,2.88-14.616Zm11.9,10.632C15.216-2.64,15.96-2.04,16.7-2.04a3.551,3.551,0,0,0,2.352-1.32,2.741,2.741,0,0,0,.408-1.008c0-.168-.072-.216-.216-.216h-.1a5.548,5.548,0,0,1-2.52,1.248.4.4,0,0,1-.24-.048,4.333,4.333,0,0,1-.552-2.568,6.722,6.722,0,0,1,.216-1.824,1.283,1.283,0,0,0-1.008-.864.493.493,0,0,0-.456.384,12.138,12.138,0,0,0-.144,1.8c0,.192.024.384.024.576-.888,1.944-2.3,2.832-2.808,2.832-.648,0-.816-1.44-.816-1.992a9.71,9.71,0,0,1,2.088-6.024,1.786,1.786,0,0,1,.552-.336c.288.048.48.456.6,1.248a1.366,1.366,0,0,0,.984.456c.264,0,.48-.12.48-.432A2.225,2.225,0,0,0,13.44-12.6c-1.488,0-4.128,3.672-4.128,7.56,0,2.952,1.368,3.408,2.208,3.408,1.032,0,2.208-1.008,3.024-2.352ZM28.752-8.4c-.216-1.488-.552-3.624-2.184-3.624-1.56,0-4.44,2.616-4.44,6.36,0,2.64,1.2,4.2,3.24,4.2a6.533,6.533,0,0,0,6.144-4.608.215.215,0,0,0-.24-.24,1.2,1.2,0,0,0-.288.048c-1.8,2.28-3.792,3.288-5.376,3.288-.528,0-1.944-.1-1.944-2.688S25.608-10.8,26.52-10.8c.36,0,.528,1.056.768,2.64a1.229,1.229,0,0,0,.864.384.554.554,0,0,0,.6-.6Zm8.064,4.008a17.72,17.72,0,0,0,7.536,3.1c.528,0,.7-.192.7-.408a.806.806,0,0,0-.12-.336c-3.192-1.248-6.792-2.784-8.016-4.248l-.024-.36a28.459,28.459,0,0,1,4.7-4.968.447.447,0,0,0,.1-.264c0-.288-.336-.5-.84-.5a1.977,1.977,0,0,0-.624.1A20.068,20.068,0,0,0,36.408-8.16l-.384-.1c-.192-2.184-.288-4.392-.288-6.384,0-1.512.024-2.856.12-3.864a1.261,1.261,0,0,0-.984-.888c-.6,0-.72.816-.72,3.7,0,4.344.528,11.664,1.872,15.408a.737.737,0,0,0,.5.288c.24,0,.432-.264.432-1.008a7.169,7.169,0,0,0-.12-1.3l-.312-1.92Zm13.3-1.992c.168-2.712,2.64-4.944,3.408-4.944a.863.863,0,0,1,.768.768c-.072.672-1.68,2.688-3.912,4.3ZM48.96-3.744a3.543,3.543,0,0,0,3.408,2.28,6.364,6.364,0,0,0,5.064-2.664,2.938,2.938,0,0,0,.528-1.344c0-.24-.1-.36-.264-.36a.261.261,0,0,0-.12.024,7.186,7.186,0,0,1-5.112,2.9A3.39,3.39,0,0,1,51.1-3.168a3.082,3.082,0,0,1-.864-1.7c2.4-1.584,5.568-4.248,5.568-6.072a1.56,1.56,0,0,0-1.656-1.488c-1.752,0-5.52,2.376-5.52,6.744a3.716,3.716,0,0,0,.024.528l-.912.552a4.4,4.4,0,0,0-.048.5c0,.288.072.456.264.456a.581.581,0,0,0,.312-.1l.288-.144Zm13.368-6.6c.072,3.144.5,6.336,1.248,7.776a2.07,2.07,0,0,0,1.8,1.128c.816-.024,2.352-.768,3.648-2.784A4.635,4.635,0,0,0,69.288-5.4c0-.288-.12-.408-.288-.408a.911.911,0,0,0-.432.144A7.093,7.093,0,0,1,65.088-3.1c-.84,0-1.344-5.736-1.344-8.112,1.464-.5,3-.936,4.632-1.368.48-.312.792-.7.792-.96,0-.144-.1-.264-.288-.336-1.44.312-3.144.72-4.776,1.152l-.312-.24a30.627,30.627,0,0,1,.5-4.44c-.192-.48-.672-.984-1.056-.984-.456,0-.888.7-.936,6.192l-1.776.528a1.512,1.512,0,0,0-.408.984c0,.312.144.528.456.528h.12l1.272-.456Z" transform="translate(1412.511 1364.87) rotate(14)" fill="#70b7e3"/>
  </g>
</svg>
